<svg width="280" height="120" style="margin:2rem"><rect x="0" y="0" width="12" height="12" stroke="none" fill="#BBDEFB"></rect><rect x="0" y="12" width="12" height="12" stroke="none" fill="#FFF9C4"></rect><rect x="0" y="24" width="12" height="12" stroke="none" fill="#D1C4E9"></rect><rect x="0" y="36" width="12" height="12" stroke="none" fill="#FFECB3"></rect><rect x="0" y="48" width="12" height="12" stroke="none" fill="#C5CAE9"></rect><rect x="0" y="60" width="12" height="12" stroke="none" fill="#B3E5FC"></rect><rect x="0" y="72" width="12" height="12" stroke="none" fill="#BBDEFB"></rect><rect x="0" y="84" width="12" height="12" stroke="none" fill="#B3E5FC"></rect><rect x="0" y="96" width="12" height="12" stroke="none" fill="#B2EBF2"></rect><rect x="0" y="108" width="12" height="12" stroke="none" fill="#F0F4C3"></rect><rect x="12" y="0" width="12" height="12" stroke="none" fill="#FFF9C4"></rect><rect x="12" y="12" width="12" height="12" stroke="none" fill="#B2DFDB"></rect><rect x="12" y="24" width="12" height="12" stroke="none" fill="#BBDEFB"></rect><rect x="12" y="36" width="12" height="12" stroke="none" fill="#FFECB3"></rect><rect x="12" y="48" width="12" height="12" stroke="none" fill="#B2EBF2"></rect><rect x="12" y="60" width="12" height="12" stroke="none" fill="#E1BEE7"></rect><rect x="12" y="72" width="12" height="12" stroke="none" fill="#F0F4C3"></rect><rect x="12" y="84" width="12" height="12" stroke="none" fill="#C8E6C9"></rect><rect x="12" y="96" width="12" height="12" stroke="none" fill="#BBDEFB"></rect><rect x="12" y="108" width="12" height="12" stroke="none" fill="#E1BEE7"></rect><rect x="24" y="0" width="12" height="12" stroke="none" fill="#E1BEE7"></rect><rect x="24" y="12" width="12" height="12" stroke="none" fill="#B2EBF2"></rect><rect x="24" y="24" width="12" height="12" stroke="none" fill="#E91E63"></rect><rect x="24" y="36" width="12" height="12" stroke="none" fill="#D1C4E9"></rect><rect x="24" y="48" width="12" height="12" stroke="none" fill="#D1C4E9"></rect><rect x="24" y="60" width="12" height="12" stroke="none" fill="#DCEDC8"></rect><rect x="24" y="72" width="12" height="12" stroke="none" fill="#E91E63"></rect><rect x="24" y="84" width="12" height="12" stroke="none" fill="#FFECB3"></rect><rect x="24" y="96" width="12" height="12" stroke="none" fill="#D1C4E9"></rect><rect x="24" y="108" width="12" height="12" stroke="none" fill="#ffcdd2"></rect><rect x="36" y="0" width="12" height="12" stroke="none" fill="#B2DFDB"></rect><rect x="36" y="12" width="12" height="12" stroke="none" fill="#FFE0B2"></rect><rect x="36" y="24" width="12" height="12" stroke="none" fill="#DCEDC8"></rect><rect x="36" y="36" width="12" height="12" stroke="none" fill="#F0F4C3"></rect><rect x="36" y="48" width="12" height="12" stroke="none" fill="#FFF9C4"></rect><rect x="36" y="60" width="12" height="12" stroke="none" fill="#F0F4C3"></rect><rect x="36" y="72" width="12" height="12" stroke="none" fill="#FFCCBC"></rect><rect x="36" y="84" width="12" height="12" stroke="none" fill="#FFCCBC"></rect><rect x="36" y="96" width="12" height="12" stroke="none" fill="#C5CAE9"></rect><rect x="36" y="108" width="12" height="12" stroke="none" fill="#C8E6C9"></rect><rect x="48" y="0" width="12" height="12" stroke="none" fill="#ffcdd2"></rect><rect x="48" y="12" width="12" height="12" stroke="none" fill="#B2DFDB"></rect><rect x="48" y="24" width="12" height="12" stroke="none" fill="#B2EBF2"></rect><rect x="48" y="36" width="12" height="12" stroke="none" fill="#D1C4E9"></rect><rect x="48" y="48" width="12" height="12" stroke="none" fill="#DCEDC8"></rect><rect x="48" y="60" width="12" height="12" stroke="none" fill="#B2EBF2"></rect><rect x="48" y="72" width="12" height="12" stroke="none" fill="#FFCCBC"></rect><rect x="48" y="84" width="12" height="12" stroke="none" fill="#C8E6C9"></rect><rect x="48" y="96" width="12" height="12" stroke="none" fill="#B2EBF2"></rect><rect x="48" y="108" width="12" height="12" stroke="none" fill="#B2DFDB"></rect><rect x="60" y="0" width="12" height="12" stroke="none" fill="#E91E63"></rect><rect x="60" y="12" width="12" height="12" stroke="none" fill="#F0F4C3"></rect><rect x="60" y="24" width="12" height="12" stroke="none" fill="#DCEDC8"></rect><rect x="60" y="36" width="12" height="12" stroke="none" fill="#C5CAE9"></rect><rect x="60" y="48" width="12" height="12" stroke="none" fill="#FFF9C4"></rect><rect x="60" y="60" width="12" height="12" stroke="none" fill="#DCEDC8"></rect><rect x="60" y="72" width="12" height="12" stroke="none" fill="#BBDEFB"></rect><rect x="60" y="84" width="12" height="12" stroke="none" fill="#BBDEFB"></rect><rect x="60" y="96" width="12" height="12" stroke="none" fill="#DCEDC8"></rect><rect x="60" y="108" width="12" height="12" stroke="none" fill="#B2EBF2"></rect><rect x="72" y="0" width="12" height="12" stroke="none" fill="#DCEDC8"></rect><rect x="72" y="12" width="12" height="12" stroke="none" fill="#FFE0B2"></rect><rect x="72" y="24" width="12" height="12" stroke="none" fill="#ffcdd2"></rect><rect x="72" y="36" width="12" height="12" stroke="none" fill="#FFF9C4"></rect><rect x="72" y="48" width="12" height="12" stroke="none" fill="#E1BEE7"></rect><rect x="72" y="60" width="12" height="12" stroke="none" fill="#D1C4E9"></rect><rect x="72" y="72" width="12" height="12" stroke="none" fill="#BBDEFB"></rect><rect x="72" y="84" width="12" height="12" stroke="none" fill="#B2DFDB"></rect><rect x="72" y="96" width="12" height="12" stroke="none" fill="#C5CAE9"></rect><rect x="72" y="108" width="12" height="12" stroke="none" fill="#E1BEE7"></rect><rect x="84" y="0" width="12" height="12" stroke="none" fill="#B2EBF2"></rect><rect x="84" y="12" width="12" height="12" stroke="none" fill="#ffcdd2"></rect><rect x="84" y="24" width="12" height="12" stroke="none" fill="#C8E6C9"></rect><rect x="84" y="36" width="12" height="12" stroke="none" fill="#C8E6C9"></rect><rect x="84" y="48" width="12" height="12" stroke="none" fill="#D1C4E9"></rect><rect x="84" y="60" width="12" height="12" stroke="none" fill="#E91E63"></rect><rect x="84" y="72" width="12" height="12" stroke="none" fill="#F0F4C3"></rect><rect x="84" y="84" width="12" height="12" stroke="none" fill="#FFECB3"></rect><rect x="84" y="96" width="12" height="12" stroke="none" fill="#E1BEE7"></rect><rect x="84" y="108" width="12" height="12" stroke="none" fill="#E91E63"></rect><rect x="96" y="0" width="12" height="12" stroke="none" fill="#C8E6C9"></rect><rect x="96" y="12" width="12" height="12" stroke="none" fill="#F0F4C3"></rect><rect x="96" y="24" width="12" height="12" stroke="none" fill="#DCEDC8"></rect><rect x="96" y="36" width="12" height="12" stroke="none" fill="#C8E6C9"></rect><rect x="96" y="48" width="12" height="12" stroke="none" fill="#B2EBF2"></rect><rect x="96" y="60" width="12" height="12" stroke="none" fill="#BBDEFB"></rect><rect x="96" y="72" width="12" height="12" stroke="none" fill="#F0F4C3"></rect><rect x="96" y="84" width="12" height="12" stroke="none" fill="#BBDEFB"></rect><rect x="96" y="96" width="12" height="12" stroke="none" fill="#DCEDC8"></rect><rect x="96" y="108" width="12" height="12" stroke="none" fill="#C5CAE9"></rect><rect x="108" y="0" width="12" height="12" stroke="none" fill="#B2DFDB"></rect><rect x="108" y="12" width="12" height="12" stroke="none" fill="#B2EBF2"></rect><rect x="108" y="24" width="12" height="12" stroke="none" fill="#BBDEFB"></rect><rect x="108" y="36" width="12" height="12" stroke="none" fill="#B2EBF2"></rect><rect x="108" y="48" width="12" height="12" stroke="none" fill="#C5CAE9"></rect><rect x="108" y="60" width="12" height="12" stroke="none" fill="#E91E63"></rect><rect x="108" y="72" width="12" height="12" stroke="none" fill="#C8E6C9"></rect><rect x="108" y="84" width="12" height="12" stroke="none" fill="#D1C4E9"></rect><rect x="108" y="96" width="12" height="12" stroke="none" fill="#FFCCBC"></rect><rect x="108" y="108" width="12" height="12" stroke="none" fill="#FFCCBC"></rect><rect x="120" y="0" width="12" height="12" stroke="none" fill="#FFCCBC"></rect><rect x="120" y="12" width="12" height="12" stroke="none" fill="#B3E5FC"></rect><rect x="120" y="24" width="12" height="12" stroke="none" fill="#BBDEFB"></rect><rect x="120" y="36" width="12" height="12" stroke="none" fill="#FFF9C4"></rect><rect x="120" y="48" width="12" height="12" stroke="none" fill="#E91E63"></rect><rect x="120" y="60" width="12" height="12" stroke="none" fill="#E91E63"></rect><rect x="120" y="72" width="12" height="12" stroke="none" fill="#DCEDC8"></rect><rect x="120" y="84" width="12" height="12" stroke="none" fill="#F0F4C3"></rect><rect x="120" y="96" width="12" height="12" stroke="none" fill="#C8E6C9"></rect><rect x="120" y="108" width="12" height="12" stroke="none" fill="#FFE0B2"></rect><rect x="132" y="0" width="12" height="12" stroke="none" fill="#DCEDC8"></rect><rect x="132" y="12" width="12" height="12" stroke="none" fill="#BBDEFB"></rect><rect x="132" y="24" width="12" height="12" stroke="none" fill="#F0F4C3"></rect><rect x="132" y="36" width="12" height="12" stroke="none" fill="#C5CAE9"></rect><rect x="132" y="48" width="12" height="12" stroke="none" fill="#FFE0B2"></rect><rect x="132" y="60" width="12" height="12" stroke="none" fill="#DCEDC8"></rect><rect x="132" y="72" width="12" height="12" stroke="none" fill="#D1C4E9"></rect><rect x="132" y="84" width="12" height="12" stroke="none" fill="#FFF9C4"></rect><rect x="132" y="96" width="12" height="12" stroke="none" fill="#E91E63"></rect><rect x="132" y="108" width="12" height="12" stroke="none" fill="#B3E5FC"></rect><rect x="144" y="0" width="12" height="12" stroke="none" fill="#B2DFDB"></rect><rect x="144" y="12" width="12" height="12" stroke="none" fill="#D1C4E9"></rect><rect x="144" y="24" width="12" height="12" stroke="none" fill="#B2EBF2"></rect><rect x="144" y="36" width="12" height="12" stroke="none" fill="#ffcdd2"></rect><rect x="144" y="48" width="12" height="12" stroke="none" fill="#DCEDC8"></rect><rect x="144" y="60" width="12" height="12" stroke="none" fill="#C5CAE9"></rect><rect x="144" y="72" width="12" height="12" stroke="none" fill="#DCEDC8"></rect><rect x="144" y="84" width="12" height="12" stroke="none" fill="#FFF9C4"></rect><rect x="144" y="96" width="12" height="12" stroke="none" fill="#B2EBF2"></rect><rect x="144" y="108" width="12" height="12" stroke="none" fill="#B2EBF2"></rect><rect x="156" y="0" width="12" height="12" stroke="none" fill="#B3E5FC"></rect><rect x="156" y="12" width="12" height="12" stroke="none" fill="#E91E63"></rect><rect x="156" y="24" width="12" height="12" stroke="none" fill="#E1BEE7"></rect><rect x="156" y="36" width="12" height="12" stroke="none" fill="#FFE0B2"></rect><rect x="156" y="48" width="12" height="12" stroke="none" fill="#ffcdd2"></rect><rect x="156" y="60" width="12" height="12" stroke="none" fill="#FFCCBC"></rect><rect x="156" y="72" width="12" height="12" stroke="none" fill="#ffcdd2"></rect><rect x="156" y="84" width="12" height="12" stroke="none" fill="#D1C4E9"></rect><rect x="156" y="96" width="12" height="12" stroke="none" fill="#FFCCBC"></rect><rect x="156" y="108" width="12" height="12" stroke="none" fill="#ffcdd2"></rect><rect x="168" y="0" width="12" height="12" stroke="none" fill="#E91E63"></rect><rect x="168" y="12" width="12" height="12" stroke="none" fill="#B2EBF2"></rect><rect x="168" y="24" width="12" height="12" stroke="none" fill="#DCEDC8"></rect><rect x="168" y="36" width="12" height="12" stroke="none" fill="#D1C4E9"></rect><rect x="168" y="48" width="12" height="12" stroke="none" fill="#B2DFDB"></rect><rect x="168" y="60" width="12" height="12" stroke="none" fill="#B2EBF2"></rect><rect x="168" y="72" width="12" height="12" stroke="none" fill="#BBDEFB"></rect><rect x="168" y="84" width="12" height="12" stroke="none" fill="#E1BEE7"></rect><rect x="168" y="96" width="12" height="12" stroke="none" fill="#B3E5FC"></rect><rect x="168" y="108" width="12" height="12" stroke="none" fill="#B2EBF2"></rect><rect x="180" y="0" width="12" height="12" stroke="none" fill="#E91E63"></rect><rect x="180" y="12" width="12" height="12" stroke="none" fill="#B3E5FC"></rect><rect x="180" y="24" width="12" height="12" stroke="none" fill="#FFE0B2"></rect><rect x="180" y="36" width="12" height="12" stroke="none" fill="#E1BEE7"></rect><rect x="180" y="48" width="12" height="12" stroke="none" fill="#B2DFDB"></rect><rect x="180" y="60" width="12" height="12" stroke="none" fill="#B3E5FC"></rect><rect x="180" y="72" width="12" height="12" stroke="none" fill="#FFF9C4"></rect><rect x="180" y="84" width="12" height="12" stroke="none" fill="#BBDEFB"></rect><rect x="180" y="96" width="12" height="12" stroke="none" fill="#FFCCBC"></rect><rect x="180" y="108" width="12" height="12" stroke="none" fill="#B3E5FC"></rect><rect x="192" y="0" width="12" height="12" stroke="none" fill="#E91E63"></rect><rect x="192" y="12" width="12" height="12" stroke="none" fill="#B3E5FC"></rect><rect x="192" y="24" width="12" height="12" stroke="none" fill="#FFCCBC"></rect><rect x="192" y="36" width="12" height="12" stroke="none" fill="#E1BEE7"></rect><rect x="192" y="48" width="12" height="12" stroke="none" fill="#BBDEFB"></rect><rect x="192" y="60" width="12" height="12" stroke="none" fill="#C5CAE9"></rect><rect x="192" y="72" width="12" height="12" stroke="none" fill="#B2EBF2"></rect><rect x="192" y="84" width="12" height="12" stroke="none" fill="#E91E63"></rect><rect x="192" y="96" width="12" height="12" stroke="none" fill="#D1C4E9"></rect><rect x="192" y="108" width="12" height="12" stroke="none" fill="#B2EBF2"></rect><rect x="204" y="0" width="12" height="12" stroke="none" fill="#F0F4C3"></rect><rect x="204" y="12" width="12" height="12" stroke="none" fill="#F0F4C3"></rect><rect x="204" y="24" width="12" height="12" stroke="none" fill="#F0F4C3"></rect><rect x="204" y="36" width="12" height="12" stroke="none" fill="#FFECB3"></rect><rect x="204" y="48" width="12" height="12" stroke="none" fill="#FFCCBC"></rect><rect x="204" y="60" width="12" height="12" stroke="none" fill="#FFF9C4"></rect><rect x="204" y="72" width="12" height="12" stroke="none" fill="#FFF9C4"></rect><rect x="204" y="84" width="12" height="12" stroke="none" fill="#FFE0B2"></rect><rect x="204" y="96" width="12" height="12" stroke="none" fill="#FFE0B2"></rect><rect x="204" y="108" width="12" height="12" stroke="none" fill="#F0F4C3"></rect><rect x="216" y="0" width="12" height="12" stroke="none" fill="#ffcdd2"></rect><rect x="216" y="12" width="12" height="12" stroke="none" fill="#D1C4E9"></rect><rect x="216" y="24" width="12" height="12" stroke="none" fill="#E91E63"></rect><rect x="216" y="36" width="12" height="12" stroke="none" fill="#B2DFDB"></rect><rect x="216" y="48" width="12" height="12" stroke="none" fill="#D1C4E9"></rect><rect x="216" y="60" width="12" height="12" stroke="none" fill="#E91E63"></rect><rect x="216" y="72" width="12" height="12" stroke="none" fill="#D1C4E9"></rect><rect x="216" y="84" width="12" height="12" stroke="none" fill="#B2EBF2"></rect><rect x="216" y="96" width="12" height="12" stroke="none" fill="#BBDEFB"></rect><rect x="216" y="108" width="12" height="12" stroke="none" fill="#FFE0B2"></rect><rect x="228" y="0" width="12" height="12" stroke="none" fill="#B2EBF2"></rect><rect x="228" y="12" width="12" height="12" stroke="none" fill="#FFF9C4"></rect><rect x="228" y="24" width="12" height="12" stroke="none" fill="#B2DFDB"></rect><rect x="228" y="36" width="12" height="12" stroke="none" fill="#B3E5FC"></rect><rect x="228" y="48" width="12" height="12" stroke="none" fill="#D1C4E9"></rect><rect x="228" y="60" width="12" height="12" stroke="none" fill="#E1BEE7"></rect><rect x="228" y="72" width="12" height="12" stroke="none" fill="#C5CAE9"></rect><rect x="228" y="84" width="12" height="12" stroke="none" fill="#FFECB3"></rect><rect x="228" y="96" width="12" height="12" stroke="none" fill="#ffcdd2"></rect><rect x="228" y="108" width="12" height="12" stroke="none" fill="#FFCCBC"></rect><rect x="240" y="0" width="12" height="12" stroke="none" fill="#DCEDC8"></rect><rect x="240" y="12" width="12" height="12" stroke="none" fill="#C5CAE9"></rect><rect x="240" y="24" width="12" height="12" stroke="none" fill="#ffcdd2"></rect><rect x="240" y="36" width="12" height="12" stroke="none" fill="#ffcdd2"></rect><rect x="240" y="48" width="12" height="12" stroke="none" fill="#B3E5FC"></rect><rect x="240" y="60" width="12" height="12" stroke="none" fill="#D1C4E9"></rect><rect x="240" y="72" width="12" height="12" stroke="none" fill="#F0F4C3"></rect><rect x="240" y="84" width="12" height="12" stroke="none" fill="#ffcdd2"></rect><rect x="240" y="96" width="12" height="12" stroke="none" fill="#E1BEE7"></rect><rect x="240" y="108" width="12" height="12" stroke="none" fill="#DCEDC8"></rect><rect x="252" y="0" width="12" height="12" stroke="none" fill="#ffcdd2"></rect><rect x="252" y="12" width="12" height="12" stroke="none" fill="#FFF9C4"></rect><rect x="252" y="24" width="12" height="12" stroke="none" fill="#ffcdd2"></rect><rect x="252" y="36" width="12" height="12" stroke="none" fill="#FFF9C4"></rect><rect x="252" y="48" width="12" height="12" stroke="none" fill="#DCEDC8"></rect><rect x="252" y="60" width="12" height="12" stroke="none" fill="#E91E63"></rect><rect x="252" y="72" width="12" height="12" stroke="none" fill="#E91E63"></rect><rect x="252" y="84" width="12" height="12" stroke="none" fill="#ffcdd2"></rect><rect x="252" y="96" width="12" height="12" stroke="none" fill="#FFCCBC"></rect><rect x="252" y="108" width="12" height="12" stroke="none" fill="#DCEDC8"></rect><rect x="264" y="0" width="12" height="12" stroke="none" fill="#B2EBF2"></rect><rect x="264" y="12" width="12" height="12" stroke="none" fill="#BBDEFB"></rect><rect x="264" y="24" width="12" height="12" stroke="none" fill="#ffcdd2"></rect><rect x="264" y="36" width="12" height="12" stroke="none" fill="#FFE0B2"></rect><rect x="264" y="48" width="12" height="12" stroke="none" fill="#D1C4E9"></rect><rect x="264" y="60" width="12" height="12" stroke="none" fill="#FFE0B2"></rect><rect x="264" y="72" width="12" height="12" stroke="none" fill="#BBDEFB"></rect><rect x="264" y="84" width="12" height="12" stroke="none" fill="#E91E63"></rect><rect x="264" y="96" width="12" height="12" stroke="none" fill="#FFE0B2"></rect><rect x="264" y="108" width="12" height="12" stroke="none" fill="#C8E6C9"></rect><rect x="276" y="0" width="12" height="12" stroke="none" fill="#B2EBF2"></rect><rect x="276" y="12" width="12" height="12" stroke="none" fill="#C5CAE9"></rect><rect x="276" y="24" width="12" height="12" stroke="none" fill="#C5CAE9"></rect><rect x="276" y="36" width="12" height="12" stroke="none" fill="#DCEDC8"></rect><rect x="276" y="48" width="12" height="12" stroke="none" fill="#FFF9C4"></rect><rect x="276" y="60" width="12" height="12" stroke="none" fill="#FFF9C4"></rect><rect x="276" y="72" width="12" height="12" stroke="none" fill="#F0F4C3"></rect><rect x="276" y="84" width="12" height="12" stroke="none" fill="#ffcdd2"></rect><rect x="276" y="96" width="12" height="12" stroke="none" fill="#FFECB3"></rect><rect x="276" y="108" width="12" height="12" stroke="none" fill="#FFCCBC"></rect></svg>