<?xml version="1.0" encoding="UTF-8" standalone="no"?>
<svg
   xmlns:dc="http://purl.org/dc/elements/1.1/"
   xmlns:cc="http://creativecommons.org/ns#"
   xmlns:rdf="http://www.w3.org/1999/02/22-rdf-syntax-ns#"
   xmlns:svg="http://www.w3.org/2000/svg"
   xmlns="http://www.w3.org/2000/svg"
   xmlns:sodipodi="http://sodipodi.sourceforge.net/DTD/sodipodi-0.dtd"
   xmlns:inkscape="http://www.inkscape.org/namespaces/inkscape"
   width="280"
   height="120"
   style="margin:2rem"
   id="svg2"
   version="1.1"
   inkscape:version="0.91 r13725"
   sodipodi:docname="vise_logo.svg"
   inkscape:export-filename="/home/tlm/dev/vise/res/logo/vise_logo.png"
   inkscape:export-xdpi="90"
   inkscape:export-ydpi="90">
  <metadata
     id="metadata488">
    <rdf:RDF>
      <cc:Work
         rdf:about="">
        <dc:format>image/svg+xml</dc:format>
        <dc:type
           rdf:resource="http://purl.org/dc/dcmitype/StillImage" />
        <dc:title></dc:title>
      </cc:Work>
    </rdf:RDF>
  </metadata>
  <defs
     id="defs486" />
  <sodipodi:namedview
     pagecolor="#ffffff"
     bordercolor="#666666"
     borderopacity="1"
     objecttolerance="10"
     gridtolerance="10"
     guidetolerance="10"
     inkscape:pageopacity="0"
     inkscape:pageshadow="2"
     inkscape:window-width="1855"
     inkscape:window-height="1056"
     id="namedview484"
     showgrid="false"
     inkscape:zoom="1"
     inkscape:cx="160.02456"
     inkscape:cy="87.089864"
     inkscape:window-x="1985"
     inkscape:window-y="24"
     inkscape:window-maximized="1"
     inkscape:current-layer="svg2" />
  <rect
     x="0"
     y="0"
     width="12"
     height="12"
     id="rect4"
     stroke="none"
     fill="#BBDEFB" />
  <rect
     x="0"
     y="12"
     width="12"
     height="12"
     stroke="none"
     fill="#FFF9C4"
     id="rect6" />
  <rect
     x="0"
     y="24"
     width="12"
     height="12"
     stroke="none"
     fill="#D1C4E9"
     id="rect8" />
  <rect
     x="0"
     y="36"
     width="12"
     height="12"
     stroke="none"
     fill="#FFECB3"
     id="rect10" />
  <rect
     x="0"
     y="48"
     width="12"
     height="12"
     stroke="none"
     fill="#C5CAE9"
     id="rect12" />
  <rect
     x="0"
     y="60"
     width="12"
     height="12"
     stroke="none"
     fill="#B3E5FC"
     id="rect14" />
  <rect
     x="0"
     y="72"
     width="12"
     height="12"
     stroke="none"
     fill="#BBDEFB"
     id="rect16" />
  <rect
     x="0"
     y="84"
     width="12"
     height="12"
     stroke="none"
     fill="#B3E5FC"
     id="rect18" />
  <rect
     x="0"
     y="96"
     width="12"
     height="12"
     stroke="none"
     fill="#B2EBF2"
     id="rect20" />
  <rect
     x="0"
     y="108"
     width="12"
     height="12"
     stroke="none"
     fill="#F0F4C3"
     id="rect22" />
  <rect
     x="12"
     y="0"
     width="12"
     height="12"
     id="rect24"
     stroke="none"
     fill="#FFF9C4" />
  <rect
     x="12"
     y="12"
     width="12"
     height="12"
     stroke="none"
     fill="#B2DFDB"
     id="rect26" />
  <rect
     x="12"
     y="24"
     width="12"
     height="12"
     stroke="none"
     fill="#BBDEFB"
     id="rect28" />
  <rect
     x="12"
     y="36"
     width="12"
     height="12"
     stroke="none"
     fill="#FFECB3"
     id="rect30" />
  <rect
     x="12"
     y="48"
     width="12"
     height="12"
     stroke="none"
     fill="#B2EBF2"
     id="rect32" />
  <rect
     x="12"
     y="60"
     width="12"
     height="12"
     stroke="none"
     fill="#E1BEE7"
     id="rect34" />
  <rect
     x="12"
     y="72"
     width="12"
     height="12"
     stroke="none"
     fill="#F0F4C3"
     id="rect36" />
  <rect
     x="12"
     y="84"
     width="12"
     height="12"
     stroke="none"
     fill="#C8E6C9"
     id="rect38" />
  <rect
     x="12"
     y="96"
     width="12"
     height="12"
     stroke="none"
     fill="#BBDEFB"
     id="rect40" />
  <rect
     x="12"
     y="108"
     width="12"
     height="12"
     stroke="none"
     fill="#E1BEE7"
     id="rect42" />
  <rect
     x="24"
     y="0"
     width="12"
     height="12"
     id="rect44"
     stroke="none"
     fill="#E1BEE7" />
  <rect
     x="24"
     y="12"
     width="12"
     height="12"
     stroke="none"
     fill="#B2EBF2"
     id="rect46" />
  <rect
     x="24"
     y="24"
     width="12"
     height="12"
     stroke="none"
     fill="#E91E63"
     id="rect48"
     style="fill:#ffecb3" />
  <rect
     x="24"
     y="36"
     width="12"
     height="12"
     stroke="none"
     fill="#D1C4E9"
     id="rect50" />
  <rect
     x="24"
     y="48"
     width="12"
     height="12"
     stroke="none"
     fill="#D1C4E9"
     id="rect52" />
  <rect
     x="24"
     y="60"
     width="12"
     height="12"
     stroke="none"
     fill="#DCEDC8"
     id="rect54" />
  <rect
     x="24"
     y="72"
     width="12"
     height="12"
     stroke="none"
     fill="#E91E63"
     id="rect56"
     style="fill:#e1bee7" />
  <rect
     x="24"
     y="84"
     width="12"
     height="12"
     stroke="none"
     fill="#FFECB3"
     id="rect58" />
  <rect
     x="24"
     y="96"
     width="12"
     height="12"
     stroke="none"
     fill="#D1C4E9"
     id="rect60" />
  <rect
     x="24"
     y="108"
     width="12"
     height="12"
     stroke="none"
     fill="#ffcdd2"
     id="rect62" />
  <rect
     x="36"
     y="0"
     width="12"
     height="12"
     id="rect64"
     stroke="none"
     fill="#B2DFDB" />
  <rect
     x="36"
     y="12"
     width="12"
     height="12"
     stroke="none"
     fill="#FFE0B2"
     id="rect66" />
  <rect
     x="36"
     y="24"
     width="12"
     height="12"
     stroke="none"
     fill="#DCEDC8"
     id="rect68" />
  <rect
     x="36"
     y="36"
     width="12"
     height="12"
     stroke="none"
     fill="#F0F4C3"
     id="rect70" />
  <rect
     x="36"
     y="48"
     width="12"
     height="12"
     stroke="none"
     fill="#FFF9C4"
     id="rect72" />
  <rect
     x="36"
     y="60"
     width="12"
     height="12"
     stroke="none"
     fill="#F0F4C3"
     id="rect74" />
  <rect
     x="36"
     y="72"
     width="12"
     height="12"
     stroke="none"
     fill="#FFCCBC"
     id="rect76" />
  <rect
     x="36"
     y="84"
     width="12"
     height="12"
     stroke="none"
     fill="#FFCCBC"
     id="rect78" />
  <rect
     x="36"
     y="96"
     width="12"
     height="12"
     stroke="none"
     fill="#C5CAE9"
     id="rect80" />
  <rect
     x="36"
     y="108"
     width="12"
     height="12"
     stroke="none"
     fill="#C8E6C9"
     id="rect82" />
  <rect
     x="48"
     y="0"
     width="12"
     height="12"
     stroke="none"
     fill="#ffcdd2"
     id="rect84" />
  <rect
     x="48"
     y="12"
     width="12"
     height="12"
     stroke="none"
     fill="#B2DFDB"
     id="rect86" />
  <rect
     x="48"
     y="24"
     width="12"
     height="12"
     stroke="none"
     fill="#B2EBF2"
     id="rect88" />
  <rect
     x="48"
     y="36"
     width="12"
     height="12"
     stroke="none"
     fill="#D1C4E9"
     id="rect90" />
  <rect
     x="48"
     y="48"
     width="12"
     height="12"
     stroke="none"
     fill="#DCEDC8"
     id="rect92" />
  <rect
     x="48"
     y="60"
     width="12"
     height="12"
     stroke="none"
     fill="#B2EBF2"
     id="rect94" />
  <rect
     x="48"
     y="72"
     width="12"
     height="12"
     stroke="none"
     fill="#FFCCBC"
     id="rect96" />
  <rect
     x="48"
     y="84"
     width="12"
     height="12"
     stroke="none"
     fill="#C8E6C9"
     id="rect98" />
  <rect
     x="48"
     y="96"
     width="12"
     height="12"
     stroke="none"
     fill="#B2EBF2"
     id="rect100" />
  <rect
     x="48"
     y="108"
     width="12"
     height="12"
     stroke="none"
     fill="#B2DFDB"
     id="rect102" />
  <rect
     x="60"
     y="0"
     width="12"
     height="12"
     stroke="none"
     fill="#E91E63"
     id="rect104"
     style="fill:#b2ebf2" />
  <rect
     x="60"
     y="12"
     width="12"
     height="12"
     stroke="none"
     fill="#F0F4C3"
     id="rect106" />
  <rect
     x="60"
     y="24"
     width="12"
     height="12"
     stroke="none"
     fill="#DCEDC8"
     id="rect108" />
  <rect
     x="60"
     y="36"
     width="12"
     height="12"
     stroke="none"
     fill="#C5CAE9"
     id="rect110" />
  <rect
     x="60"
     y="48"
     width="12"
     height="12"
     stroke="none"
     fill="#FFF9C4"
     id="rect112" />
  <rect
     x="60"
     y="60"
     width="12"
     height="12"
     stroke="none"
     fill="#DCEDC8"
     id="rect114" />
  <rect
     x="60"
     y="72"
     width="12"
     height="12"
     stroke="none"
     fill="#BBDEFB"
     id="rect116" />
  <rect
     x="60"
     y="84"
     width="12"
     height="12"
     stroke="none"
     fill="#BBDEFB"
     id="rect118" />
  <rect
     x="60"
     y="96"
     width="12"
     height="12"
     stroke="none"
     fill="#DCEDC8"
     id="rect120" />
  <rect
     x="60"
     y="108"
     width="12"
     height="12"
     stroke="none"
     fill="#B2EBF2"
     id="rect122" />
  <rect
     x="72"
     y="0"
     width="12"
     height="12"
     stroke="none"
     fill="#DCEDC8"
     id="rect124" />
  <rect
     x="72"
     y="12"
     width="12"
     height="12"
     stroke="none"
     fill="#FFE0B2"
     id="rect126" />
  <rect
     x="72"
     y="24"
     width="12"
     height="12"
     stroke="none"
     fill="#ffcdd2"
     id="rect128" />
  <rect
     x="72"
     y="36"
     width="12"
     height="12"
     stroke="none"
     fill="#FFF9C4"
     id="rect130" />
  <rect
     x="72"
     y="48"
     width="12"
     height="12"
     stroke="none"
     fill="#E1BEE7"
     id="rect132" />
  <rect
     x="72"
     y="60"
     width="12"
     height="12"
     stroke="none"
     fill="#D1C4E9"
     id="rect134" />
  <rect
     x="72"
     y="72"
     width="12"
     height="12"
     stroke="none"
     fill="#BBDEFB"
     id="rect136" />
  <rect
     x="72"
     y="84"
     width="12"
     height="12"
     stroke="none"
     fill="#B2DFDB"
     id="rect138" />
  <rect
     x="72"
     y="96"
     width="12"
     height="12"
     stroke="none"
     fill="#C5CAE9"
     id="rect140" />
  <rect
     x="72"
     y="108"
     width="12"
     height="12"
     stroke="none"
     fill="#E1BEE7"
     id="rect142" />
  <rect
     x="84"
     y="0"
     width="12"
     height="12"
     stroke="none"
     fill="#B2EBF2"
     id="rect144" />
  <rect
     x="84"
     y="12"
     width="12"
     height="12"
     stroke="none"
     fill="#ffcdd2"
     id="rect146" />
  <rect
     x="84"
     y="24"
     width="12"
     height="12"
     stroke="none"
     fill="#C8E6C9"
     id="rect148" />
  <rect
     x="84"
     y="36"
     width="12"
     height="12"
     stroke="none"
     fill="#C8E6C9"
     id="rect150" />
  <rect
     x="84"
     y="48"
     width="12"
     height="12"
     stroke="none"
     fill="#D1C4E9"
     id="rect152" />
  <rect
     x="84"
     y="60"
     width="12"
     height="12"
     stroke="none"
     fill="#E91E63"
     id="rect154"
     style="fill:#dcedc8" />
  <rect
     x="84"
     y="72"
     width="12"
     height="12"
     stroke="none"
     fill="#F0F4C3"
     id="rect156" />
  <rect
     x="84"
     y="84"
     width="12"
     height="12"
     stroke="none"
     fill="#FFECB3"
     id="rect158" />
  <rect
     x="84"
     y="96"
     width="12"
     height="12"
     stroke="none"
     fill="#E1BEE7"
     id="rect160" />
  <rect
     x="84"
     y="108"
     width="12"
     height="12"
     stroke="none"
     fill="#E91E63"
     id="rect162"
     style="fill:#b3e5fc" />
  <rect
     x="96"
     y="0"
     width="12"
     height="12"
     stroke="none"
     fill="#C8E6C9"
     id="rect164" />
  <rect
     x="96"
     y="12"
     width="12"
     height="12"
     stroke="none"
     fill="#F0F4C3"
     id="rect166" />
  <rect
     x="96"
     y="24"
     width="12"
     height="12"
     stroke="none"
     fill="#DCEDC8"
     id="rect168" />
  <rect
     x="96"
     y="36"
     width="12"
     height="12"
     stroke="none"
     fill="#C8E6C9"
     id="rect170" />
  <rect
     x="96"
     y="48"
     width="12"
     height="12"
     stroke="none"
     fill="#B2EBF2"
     id="rect172" />
  <rect
     x="96"
     y="60"
     width="12"
     height="12"
     stroke="none"
     fill="#BBDEFB"
     id="rect174" />
  <rect
     x="96"
     y="72"
     width="12"
     height="12"
     stroke="none"
     fill="#F0F4C3"
     id="rect176" />
  <rect
     x="96"
     y="84"
     width="12"
     height="12"
     stroke="none"
     fill="#BBDEFB"
     id="rect178" />
  <rect
     x="96"
     y="96"
     width="12"
     height="12"
     stroke="none"
     fill="#DCEDC8"
     id="rect180" />
  <rect
     x="96"
     y="108"
     width="12"
     height="12"
     stroke="none"
     fill="#C5CAE9"
     id="rect182" />
  <rect
     x="108"
     y="0"
     width="12"
     height="12"
     stroke="none"
     fill="#B2DFDB"
     id="rect184" />
  <rect
     x="108"
     y="12"
     width="12"
     height="12"
     stroke="none"
     fill="#B2EBF2"
     id="rect186" />
  <rect
     x="108"
     y="24"
     width="12"
     height="12"
     stroke="none"
     fill="#BBDEFB"
     id="rect188" />
  <rect
     x="108"
     y="36"
     width="12"
     height="12"
     stroke="none"
     fill="#B2EBF2"
     id="rect190" />
  <rect
     x="108"
     y="48"
     width="12"
     height="12"
     stroke="none"
     fill="#C5CAE9"
     id="rect192" />
  <rect
     x="108"
     y="60"
     width="12"
     height="12"
     stroke="none"
     fill="#E91E63"
     id="rect194"
     style="fill:#e1bee7" />
  <rect
     x="108"
     y="72"
     width="12"
     height="12"
     stroke="none"
     fill="#C8E6C9"
     id="rect196" />
  <rect
     x="108"
     y="84"
     width="12"
     height="12"
     stroke="none"
     fill="#D1C4E9"
     id="rect198" />
  <rect
     x="108"
     y="96"
     width="12"
     height="12"
     stroke="none"
     fill="#FFCCBC"
     id="rect200" />
  <rect
     x="108"
     y="108"
     width="12"
     height="12"
     stroke="none"
     fill="#FFCCBC"
     id="rect202" />
  <rect
     x="120"
     y="0"
     width="12"
     height="12"
     stroke="none"
     fill="#FFCCBC"
     id="rect204" />
  <rect
     x="120"
     y="12"
     width="12"
     height="12"
     stroke="none"
     fill="#B3E5FC"
     id="rect206" />
  <rect
     x="120"
     y="24"
     width="12"
     height="12"
     stroke="none"
     fill="#BBDEFB"
     id="rect208" />
  <rect
     x="120"
     y="36"
     width="12"
     height="12"
     stroke="none"
     fill="#FFF9C4"
     id="rect210" />
  <rect
     x="120"
     y="48"
     width="12"
     height="12"
     stroke="none"
     fill="#E91E63"
     id="rect212"
     style="fill:#dcedc8" />
  <rect
     x="120"
     y="60"
     width="12"
     height="12"
     stroke="none"
     fill="#E91E63"
     id="rect214"
     style="fill:#ffcdd2" />
  <rect
     x="120"
     y="72"
     width="12"
     height="12"
     stroke="none"
     fill="#DCEDC8"
     id="rect216" />
  <rect
     x="120"
     y="84"
     width="12"
     height="12"
     stroke="none"
     fill="#F0F4C3"
     id="rect218" />
  <rect
     x="120"
     y="96"
     width="12"
     height="12"
     stroke="none"
     fill="#C8E6C9"
     id="rect220" />
  <rect
     x="120"
     y="108"
     width="12"
     height="12"
     stroke="none"
     fill="#FFE0B2"
     id="rect222" />
  <rect
     x="132"
     y="0"
     width="12"
     height="12"
     stroke="none"
     fill="#DCEDC8"
     id="rect224" />
  <rect
     x="132"
     y="12"
     width="12"
     height="12"
     stroke="none"
     fill="#BBDEFB"
     id="rect226" />
  <rect
     x="132"
     y="24"
     width="12"
     height="12"
     stroke="none"
     fill="#F0F4C3"
     id="rect228" />
  <rect
     x="132"
     y="36"
     width="12"
     height="12"
     stroke="none"
     fill="#C5CAE9"
     id="rect230" />
  <rect
     x="132"
     y="48"
     width="12"
     height="12"
     stroke="none"
     fill="#FFE0B2"
     id="rect232" />
  <rect
     x="132"
     y="60"
     width="12"
     height="12"
     stroke="none"
     fill="#DCEDC8"
     id="rect234" />
  <rect
     x="132"
     y="72"
     width="12"
     height="12"
     stroke="none"
     fill="#D1C4E9"
     id="rect236" />
  <rect
     x="132"
     y="84"
     width="12"
     height="12"
     stroke="none"
     fill="#FFF9C4"
     id="rect238" />
  <rect
     x="132"
     y="96"
     width="12"
     height="12"
     stroke="none"
     fill="#E91E63"
     id="rect240"
     style="fill:#e1bee7" />
  <rect
     x="132"
     y="108"
     width="12"
     height="12"
     stroke="none"
     fill="#B3E5FC"
     id="rect242" />
  <rect
     x="144"
     y="0"
     width="12"
     height="12"
     stroke="none"
     fill="#B2DFDB"
     id="rect244" />
  <rect
     x="144"
     y="12"
     width="12"
     height="12"
     stroke="none"
     fill="#D1C4E9"
     id="rect246" />
  <rect
     x="144"
     y="24"
     width="12"
     height="12"
     stroke="none"
     fill="#B2EBF2"
     id="rect248" />
  <rect
     x="144"
     y="36"
     width="12"
     height="12"
     stroke="none"
     fill="#ffcdd2"
     id="rect250" />
  <rect
     x="144"
     y="48"
     width="12"
     height="12"
     stroke="none"
     fill="#DCEDC8"
     id="rect252" />
  <rect
     x="144"
     y="60"
     width="12"
     height="12"
     stroke="none"
     fill="#C5CAE9"
     id="rect254" />
  <rect
     x="144"
     y="72"
     width="12"
     height="12"
     stroke="none"
     fill="#DCEDC8"
     id="rect256" />
  <rect
     x="144"
     y="84"
     width="12"
     height="12"
     stroke="none"
     fill="#FFF9C4"
     id="rect258" />
  <rect
     x="144"
     y="96"
     width="12"
     height="12"
     stroke="none"
     fill="#B2EBF2"
     id="rect260" />
  <rect
     x="144"
     y="108"
     width="12"
     height="12"
     stroke="none"
     fill="#B2EBF2"
     id="rect262" />
  <rect
     x="156"
     y="0"
     width="12"
     height="12"
     stroke="none"
     fill="#B3E5FC"
     id="rect264" />
  <rect
     x="156"
     y="12"
     width="12"
     height="12"
     stroke="none"
     fill="#E91E63"
     id="rect266"
     style="fill:#ffccbc" />
  <rect
     x="156"
     y="24"
     width="12"
     height="12"
     stroke="none"
     fill="#E1BEE7"
     id="rect268" />
  <rect
     x="156"
     y="36"
     width="12"
     height="12"
     stroke="none"
     fill="#FFE0B2"
     id="rect270" />
  <rect
     x="156"
     y="48"
     width="12"
     height="12"
     stroke="none"
     fill="#ffcdd2"
     id="rect272" />
  <rect
     x="156"
     y="60"
     width="12"
     height="12"
     stroke="none"
     fill="#FFCCBC"
     id="rect274" />
  <rect
     x="156"
     y="72"
     width="12"
     height="12"
     stroke="none"
     fill="#ffcdd2"
     id="rect276" />
  <rect
     x="156"
     y="84"
     width="12"
     height="12"
     stroke="none"
     fill="#D1C4E9"
     id="rect278" />
  <rect
     x="156"
     y="96"
     width="12"
     height="12"
     stroke="none"
     fill="#FFCCBC"
     id="rect280" />
  <rect
     x="156"
     y="108"
     width="12"
     height="12"
     stroke="none"
     fill="#ffcdd2"
     id="rect282" />
  <rect
     x="168"
     y="0"
     width="12"
     height="12"
     stroke="none"
     fill="#E91E63"
     id="rect284"
     style="fill:#ffcdd2" />
  <rect
     x="168"
     y="12"
     width="12"
     height="12"
     stroke="none"
     fill="#B2EBF2"
     id="rect286" />
  <rect
     x="168"
     y="24"
     width="12"
     height="12"
     stroke="none"
     fill="#DCEDC8"
     id="rect288" />
  <rect
     x="168"
     y="36"
     width="12"
     height="12"
     stroke="none"
     fill="#D1C4E9"
     id="rect290" />
  <rect
     x="168"
     y="48"
     width="12"
     height="12"
     stroke="none"
     fill="#B2DFDB"
     id="rect292" />
  <rect
     x="168"
     y="60"
     width="12"
     height="12"
     stroke="none"
     fill="#B2EBF2"
     id="rect294" />
  <rect
     x="168"
     y="72"
     width="12"
     height="12"
     stroke="none"
     fill="#BBDEFB"
     id="rect296" />
  <rect
     x="168"
     y="84"
     width="12"
     height="12"
     stroke="none"
     fill="#E1BEE7"
     id="rect298" />
  <rect
     x="168"
     y="96"
     width="12"
     height="12"
     stroke="none"
     fill="#B3E5FC"
     id="rect300" />
  <rect
     x="168"
     y="108"
     width="12"
     height="12"
     stroke="none"
     fill="#B2EBF2"
     id="rect302" />
  <rect
     x="180"
     y="0"
     width="12"
     height="12"
     stroke="none"
     fill="#E91E63"
     id="rect304"
     style="fill:#e1bee7" />
  <rect
     x="180"
     y="12"
     width="12"
     height="12"
     stroke="none"
     fill="#B3E5FC"
     id="rect306" />
  <rect
     x="180"
     y="24"
     width="12"
     height="12"
     stroke="none"
     fill="#FFE0B2"
     id="rect308" />
  <rect
     x="180"
     y="36"
     width="12"
     height="12"
     stroke="none"
     fill="#E1BEE7"
     id="rect310" />
  <rect
     x="180"
     y="48"
     width="12"
     height="12"
     stroke="none"
     fill="#B2DFDB"
     id="rect312" />
  <rect
     x="180"
     y="60"
     width="12"
     height="12"
     stroke="none"
     fill="#B3E5FC"
     id="rect314" />
  <rect
     x="180"
     y="72"
     width="12"
     height="12"
     stroke="none"
     fill="#FFF9C4"
     id="rect316" />
  <rect
     x="180"
     y="84"
     width="12"
     height="12"
     stroke="none"
     fill="#BBDEFB"
     id="rect318" />
  <rect
     x="180"
     y="96"
     width="12"
     height="12"
     stroke="none"
     fill="#FFCCBC"
     id="rect320" />
  <rect
     x="180"
     y="108"
     width="12"
     height="12"
     stroke="none"
     fill="#B3E5FC"
     id="rect322" />
  <rect
     x="192"
     y="0"
     width="12"
     height="12"
     stroke="none"
     fill="#E91E63"
     id="rect324"
     style="fill:#dcedc8" />
  <rect
     x="192"
     y="12"
     width="12"
     height="12"
     stroke="none"
     fill="#B3E5FC"
     id="rect326" />
  <rect
     x="192"
     y="24"
     width="12"
     height="12"
     stroke="none"
     fill="#FFCCBC"
     id="rect328" />
  <rect
     x="192"
     y="36"
     width="12"
     height="12"
     stroke="none"
     fill="#E1BEE7"
     id="rect330" />
  <rect
     x="192"
     y="48"
     width="12"
     height="12"
     stroke="none"
     fill="#BBDEFB"
     id="rect332" />
  <rect
     x="192"
     y="60"
     width="12"
     height="12"
     stroke="none"
     fill="#C5CAE9"
     id="rect334" />
  <rect
     x="192"
     y="72"
     width="12"
     height="12"
     stroke="none"
     fill="#B2EBF2"
     id="rect336" />
  <rect
     x="192"
     y="84"
     width="12"
     height="12"
     stroke="none"
     fill="#E91E63"
     id="rect338"
     style="fill:#e1bee7" />
  <rect
     x="192"
     y="96"
     width="12"
     height="12"
     stroke="none"
     fill="#D1C4E9"
     id="rect340" />
  <rect
     x="192"
     y="108"
     width="12"
     height="12"
     stroke="none"
     fill="#B2EBF2"
     id="rect342" />
  <rect
     x="204"
     y="0"
     width="12"
     height="12"
     stroke="none"
     fill="#F0F4C3"
     id="rect344" />
  <rect
     x="204"
     y="12"
     width="12"
     height="12"
     stroke="none"
     fill="#F0F4C3"
     id="rect346"
     style="fill:#c5cae9" />
  <rect
     x="204"
     y="24"
     width="12"
     height="12"
     stroke="none"
     fill="#F0F4C3"
     id="rect348" />
  <rect
     x="204"
     y="36"
     width="12"
     height="12"
     stroke="none"
     fill="#FFECB3"
     id="rect350" />
  <rect
     x="204"
     y="48"
     width="12"
     height="12"
     stroke="none"
     fill="#FFCCBC"
     id="rect352" />
  <rect
     x="204"
     y="60"
     width="12"
     height="12"
     stroke="none"
     fill="#FFF9C4"
     id="rect354" />
  <rect
     x="204"
     y="72"
     width="12"
     height="12"
     stroke="none"
     fill="#FFF9C4"
     id="rect356" />
  <rect
     x="204"
     y="84"
     width="12"
     height="12"
     stroke="none"
     fill="#FFE0B2"
     id="rect358" />
  <rect
     x="204"
     y="96"
     width="12"
     height="12"
     stroke="none"
     fill="#FFE0B2"
     id="rect360" />
  <rect
     x="204"
     y="108"
     width="12"
     height="12"
     stroke="none"
     fill="#F0F4C3"
     id="rect362" />
  <rect
     x="216"
     y="0"
     width="12"
     height="12"
     stroke="none"
     fill="#ffcdd2"
     id="rect364" />
  <rect
     x="216"
     y="12"
     width="12"
     height="12"
     stroke="none"
     fill="#D1C4E9"
     id="rect366" />
  <rect
     x="216"
     y="24"
     width="12"
     height="12"
     stroke="none"
     fill="#E91E63"
     id="rect368"
     style="fill:#dcedc8" />
  <rect
     x="216"
     y="36"
     width="12"
     height="12"
     stroke="none"
     fill="#B2DFDB"
     id="rect370" />
  <rect
     x="216"
     y="48"
     width="12"
     height="12"
     stroke="none"
     fill="#D1C4E9"
     id="rect372" />
  <rect
     x="216"
     y="60"
     width="12"
     height="12"
     stroke="none"
     fill="#E91E63"
     id="rect374"
     style="fill:#ffcdd2" />
  <rect
     x="216"
     y="72"
     width="12"
     height="12"
     stroke="none"
     fill="#D1C4E9"
     id="rect376" />
  <rect
     x="216"
     y="84"
     width="12"
     height="12"
     stroke="none"
     fill="#B2EBF2"
     id="rect378" />
  <rect
     x="216"
     y="96"
     width="12"
     height="12"
     stroke="none"
     fill="#BBDEFB"
     id="rect380" />
  <rect
     x="216"
     y="108"
     width="12"
     height="12"
     stroke="none"
     fill="#FFE0B2"
     id="rect382" />
  <rect
     x="228"
     y="0"
     width="12"
     height="12"
     stroke="none"
     fill="#B2EBF2"
     id="rect384" />
  <rect
     x="228"
     y="12"
     width="12"
     height="12"
     stroke="none"
     fill="#FFF9C4"
     id="rect386" />
  <rect
     x="228"
     y="24"
     width="12"
     height="12"
     stroke="none"
     fill="#B2DFDB"
     id="rect388" />
  <rect
     x="228"
     y="36"
     width="12"
     height="12"
     stroke="none"
     fill="#B3E5FC"
     id="rect390" />
  <rect
     x="228"
     y="48"
     width="12"
     height="12"
     stroke="none"
     fill="#D1C4E9"
     id="rect392" />
  <rect
     x="228"
     y="60"
     width="12"
     height="12"
     stroke="none"
     fill="#E1BEE7"
     id="rect394" />
  <rect
     x="228"
     y="72"
     width="12"
     height="12"
     stroke="none"
     fill="#C5CAE9"
     id="rect396" />
  <rect
     x="228"
     y="84"
     width="12"
     height="12"
     stroke="none"
     fill="#FFECB3"
     id="rect398" />
  <rect
     x="228"
     y="96"
     width="12"
     height="12"
     stroke="none"
     fill="#ffcdd2"
     id="rect400" />
  <rect
     x="228"
     y="108"
     width="12"
     height="12"
     stroke="none"
     fill="#FFCCBC"
     id="rect402" />
  <rect
     x="240"
     y="0"
     width="12"
     height="12"
     stroke="none"
     fill="#DCEDC8"
     id="rect404" />
  <rect
     x="240"
     y="12"
     width="12"
     height="12"
     stroke="none"
     fill="#C5CAE9"
     id="rect406" />
  <rect
     x="240"
     y="24"
     width="12"
     height="12"
     stroke="none"
     fill="#ffcdd2"
     id="rect408" />
  <rect
     x="240"
     y="36"
     width="12"
     height="12"
     stroke="none"
     fill="#ffcdd2"
     id="rect410" />
  <rect
     x="240"
     y="48"
     width="12"
     height="12"
     stroke="none"
     fill="#B3E5FC"
     id="rect412" />
  <rect
     x="240"
     y="60"
     width="12"
     height="12"
     stroke="none"
     fill="#D1C4E9"
     id="rect414" />
  <rect
     x="240"
     y="72"
     width="12"
     height="12"
     stroke="none"
     fill="#F0F4C3"
     id="rect416" />
  <rect
     x="240"
     y="84"
     width="12"
     height="12"
     stroke="none"
     fill="#ffcdd2"
     id="rect418" />
  <rect
     x="240"
     y="96"
     width="12"
     height="12"
     stroke="none"
     fill="#E1BEE7"
     id="rect420" />
  <rect
     x="240"
     y="108"
     width="12"
     height="12"
     stroke="none"
     fill="#DCEDC8"
     id="rect422" />
  <rect
     x="252"
     y="0"
     width="12"
     height="12"
     stroke="none"
     fill="#ffcdd2"
     id="rect424" />
  <rect
     x="252"
     y="12"
     width="12"
     height="12"
     stroke="none"
     fill="#FFF9C4"
     id="rect426" />
  <rect
     x="252"
     y="24"
     width="12"
     height="12"
     stroke="none"
     fill="#ffcdd2"
     id="rect428" />
  <rect
     x="252"
     y="36"
     width="12"
     height="12"
     stroke="none"
     fill="#FFF9C4"
     id="rect430" />
  <rect
     x="252"
     y="48"
     width="12"
     height="12"
     stroke="none"
     fill="#DCEDC8"
     id="rect432" />
  <rect
     x="252"
     y="60"
     width="12"
     height="12"
     stroke="none"
     fill="#E91E63"
     id="rect434"
     style="fill:#ffcdd2" />
  <rect
     x="252"
     y="72"
     width="12"
     height="12"
     stroke="none"
     fill="#E91E63"
     id="rect436"
     style="fill:#dcedc8" />
  <rect
     x="252"
     y="84"
     width="12"
     height="12"
     stroke="none"
     fill="#ffcdd2"
     id="rect438" />
  <rect
     x="252"
     y="96"
     width="12"
     height="12"
     stroke="none"
     fill="#FFCCBC"
     id="rect440" />
  <rect
     x="252"
     y="108"
     width="12"
     height="12"
     stroke="none"
     fill="#DCEDC8"
     id="rect442" />
  <rect
     x="264"
     y="0"
     width="12"
     height="12"
     stroke="none"
     fill="#B2EBF2"
     id="rect444" />
  <rect
     x="264"
     y="12"
     width="12"
     height="12"
     stroke="none"
     fill="#BBDEFB"
     id="rect446"
     style="fill:#e1bee7" />
  <rect
     x="264"
     y="24"
     width="12"
     height="12"
     stroke="none"
     fill="#ffcdd2"
     id="rect448" />
  <rect
     x="264"
     y="36"
     width="12"
     height="12"
     stroke="none"
     fill="#FFE0B2"
     id="rect450" />
  <rect
     x="264"
     y="48"
     width="12"
     height="12"
     stroke="none"
     fill="#D1C4E9"
     id="rect452" />
  <rect
     x="264"
     y="60"
     width="12"
     height="12"
     stroke="none"
     fill="#FFE0B2"
     id="rect454" />
  <rect
     x="264"
     y="72"
     width="12"
     height="12"
     stroke="none"
     fill="#BBDEFB"
     id="rect456" />
  <rect
     x="264"
     y="84"
     width="12"
     height="12"
     stroke="none"
     fill="#E91E63"
     id="rect458"
     style="fill:#ffecb3" />
  <rect
     x="264"
     y="96"
     width="12"
     height="12"
     stroke="none"
     fill="#FFE0B2"
     id="rect460" />
  <rect
     x="264"
     y="108"
     width="12"
     height="12"
     stroke="none"
     fill="#C8E6C9"
     id="rect462" />
  <rect
     x="276"
     y="0"
     width="12"
     height="12"
     stroke="none"
     fill="#B2EBF2"
     id="rect464" />
  <rect
     x="276"
     y="12"
     width="12"
     height="12"
     stroke="none"
     fill="#C5CAE9"
     id="rect466" />
  <rect
     x="276"
     y="24"
     width="12"
     height="12"
     stroke="none"
     fill="#C5CAE9"
     id="rect468" />
  <rect
     x="276"
     y="36"
     width="12"
     height="12"
     stroke="none"
     fill="#DCEDC8"
     id="rect470" />
  <rect
     x="276"
     y="48"
     width="12"
     height="12"
     stroke="none"
     fill="#FFF9C4"
     id="rect472" />
  <rect
     x="276"
     y="60"
     width="12"
     height="12"
     stroke="none"
     fill="#FFF9C4"
     id="rect474" />
  <rect
     x="276"
     y="72"
     width="12"
     height="12"
     stroke="none"
     fill="#F0F4C3"
     id="rect476" />
  <rect
     x="276"
     y="84"
     width="12"
     height="12"
     stroke="none"
     fill="#ffcdd2"
     id="rect478" />
  <rect
     x="276"
     y="96"
     width="12"
     height="12"
     stroke="none"
     fill="#FFECB3"
     id="rect480" />
  <rect
     x="276"
     y="108"
     width="12"
     height="12"
     stroke="none"
     fill="#FFCCBC"
     id="rect482" />
  <flowRoot
     xml:space="preserve"
     id="flowRoot4616"
     style="font-style:normal;font-weight:normal;font-size:40px;line-height:125%;font-family:sans-serif;letter-spacing:0px;word-spacing:0px;fill:#000000;fill-opacity:1;stroke:none;stroke-width:1px;stroke-linecap:butt;stroke-linejoin:miter;stroke-opacity:1"
     transform="translate(291.83006,-10.75995)"><flowRegion
       id="flowRegion4618"><rect
         id="rect4620"
         width="425.63757"
         height="195.43625"
         x="-267.78525"
         y="20.402685" /></flowRegion><flowPara
       id="flowPara4622"
       style="font-style:normal;font-variant:normal;font-weight:normal;font-stretch:normal;font-size:80px;font-family:cmr10;-inkscape-font-specification:cmr10;letter-spacing:16px">VI<flowSpan
   style="font-style:normal;font-variant:normal;font-weight:normal;font-stretch:normal;font-family:cmsy10;-inkscape-font-specification:cmsy10;fill:#e91e63;fill-opacity:1"
   id="flowSpan4643">S</flowSpan>E</flowPara></flowRoot></svg>
